<svg width="120" height="120" viewBox="0 0 120 120" fill="none" xmlns="http://www.w3.org/2000/svg">
<rect width="120" height="120" rx="19" fill="#3060FD"/>
<path d="M40.875 90.1406C38.625 90.1406 37.5 89.5312 37.5 88.3125V33.3281C37.5 32.0781 38.625 31.4531 40.875 31.4531H41.5312C43.75 31.4531 44.8594 32.0781 44.8594 33.3281V56.9062H75.0469V33.3281C75.0469 32.0781 76.1562 31.4531 78.375 31.4531H79.0312C81.25 31.4531 82.3594 32.0781 82.3594 33.3281V88.3125C82.3594 88.9375 82.0938 89.4062 81.5625 89.7188C81.0312 90 80.1875 90.1406 79.0312 90.1406H78.375C77.2188 90.1406 76.375 90 75.8438 89.7188C75.3125 89.4062 75.0469 88.9375 75.0469 88.3125V63.2344H44.8594V88.3125C44.8594 89.5312 43.75 90.1406 41.5312 90.1406H40.875Z" fill="white"/>
</svg>
